<svg width="48" height="40" viewBox="0 0 48 40" fill="none" xmlns="http://www.w3.org/2000/svg">
<path d="M0.479147 29.3992C-0.159716 29.1097 -0.159716 28.6403 0.479147 28.3508L22.8432 18.2171C23.4821 17.9276 24.5179 17.9276 25.1568 18.2171L47.5209 28.3508C48.1597 28.6403 48.1597 29.1097 47.5209 29.3992L25.1568 39.5329C24.5179 39.8224 23.4821 39.8224 22.8432 39.5329L0.479147 29.3992Z" fill="#1976D2"/>
<path d="M0.479147 20.3992C-0.159716 20.1097 -0.159716 19.6403 0.479147 19.3508L22.8432 9.21711C23.4821 8.92763 24.5179 8.92763 25.1568 9.21711L47.5209 19.3508C48.1597 19.6403 48.1597 20.1097 47.5209 20.3992L25.1568 30.5329C24.5179 30.8224 23.4821 30.8224 22.8432 30.5329L0.479147 20.3992Z" fill="#1E88E5"/>
<path d="M0.479147 11.3992C-0.159716 11.1097 -0.159716 10.6403 0.479147 10.3508L22.8432 0.217113C23.4821 -0.0723712 24.5179 -0.0723712 25.1568 0.217113L47.5209 10.3508C48.1597 10.6403 48.1597 11.1097 47.5209 11.3992L25.1568 21.5329C24.5179 21.8224 23.4821 21.8224 22.8432 21.5329L0.479147 11.3992Z" fill="#2196F3"/>
</svg>
